<?xml version="1.0" standalone="no"?>
<!DOCTYPE svg PUBLIC "-//W3C//DTD SVG 20010904//EN"
 "http://www.w3.org/TR/2001/REC-SVG-20010904/DTD/svg10.dtd">
<svg version="1.0" xmlns="http://www.w3.org/2000/svg"
 width="512.000000pt" height="512.000000pt" viewBox="0 0 512.000000 512.000000"
 preserveAspectRatio="xMidYMid meet">
<metadata>
Created by potrace 1.11, written by Peter Selinger 2001-2013
</metadata>
<g transform="translate(0.000000,512.000000) scale(0.100000,-0.100000)"
fill="#000000" stroke="none">
<path d="M0 2560 l0 -2560 2560 0 2560 0 0 2560 0 2560 -2560 0 -2560 0 0
-2560z m3315 2155 c35 -25 65 -49 67 -53 2 -4 19 -20 38 -36 326 -266 592
-671 733 -1116 32 -100 107 -387 107 -409 0 -5 -46 -32 -102 -61 -57 -28 -134
-70 -173 -92 -38 -22 -83 -47 -100 -56 -16 -10 -41 -25 -55 -35 -45 -32 -222
-147 -226 -147 -2 0 -4 6 -4 13 0 40 -123 469 -181 630 -22 59 -39 112 -39
118 0 6 -6 25 -14 42 -34 75 -56 130 -56 139 0 22 -211 480 -257 558 -18 30
-33 60 -33 66 0 6 -8 22 -19 35 -10 13 -33 52 -52 87 l-33 63 90 90 c71 72
226 206 242 208 2 1 32 -19 67 -44z m-1397 -132 c41 -74 157 -307 207 -418 44
-100 151 -428 159 -490 3 -22 12 -70 20 -105 28 -122 46 -301 46 -458 l-1
-157 -30 80 c-17 44 -40 105 -51 135 -41 109 -187 397 -265 522 -51 83 -166
253 -177 263 -6 6 -42 51 -80 100 -84 109 -175 216 -230 270 -61 60 -139 146
-135 148 27 14 184 90 214 103 58 24 248 92 262 93 6 1 34 -38 61 -86z m1076
-608 c51 -104 97 -201 101 -215 4 -14 21 -53 37 -87 16 -34 31 -70 33 -80 2
-10 19 -56 38 -103 18 -47 41 -105 49 -130 8 -25 25 -72 36 -105 32 -92 94
-295 97 -319 2 -11 19 -82 38 -156 35 -132 93 -421 102 -510 77 -689 78 -718
71 -1338 -3 -284 -8 -536 -12 -559 l-6 -43 -562 0 -562 0 -55 107 c-66 129
-110 232 -113 267 -2 14 -8 38 -14 53 -18 45 -51 185 -53 223 -1 19 9 57 21
84 72 157 172 508 190 666 5 47 14 119 20 160 13 105 11 446 -4 560 -10 78
-10 104 1 146 40 155 54 288 54 519 0 191 -4 253 -22 368 l-23 137 22 53 c13
30 24 63 27 75 2 12 10 36 19 54 81 178 131 279 159 322 18 28 39 63 46 78 8
15 22 36 31 46 9 9 25 30 35 46 l18 28 44 -79 c24 -43 86 -163 137 -268z
m-1560 99 c25 -50 46 -93 46 -97 0 -3 14 -36 32 -74 17 -37 35 -81 39 -98 5
-16 24 -77 43 -135 86 -262 109 -417 109 -735 0 -267 -6 -345 -27 -345 -6 0
-27 13 -46 28 -57 47 -320 175 -382 187 -9 2 -47 15 -85 28 -37 14 -94 30
-125 37 -32 7 -58 16 -58 20 0 4 10 22 23 41 49 75 144 283 193 424 93 265
131 455 150 730 3 50 8 96 10 104 6 19 19 1 78 -115z m354 -336 c29 -42 52
-81 52 -86 0 -4 9 -18 20 -30 28 -30 216 -372 204 -372 -2 0 8 -24 22 -52 48
-94 96 -239 148 -441 l51 -199 -48 -140 c-75 -220 -195 -454 -330 -645 -138
-194 -360 -433 -547 -587 -52 -44 -97 -82 -100 -85 -3 -4 -34 -29 -70 -56
l-65 -50 39 55 c22 30 51 69 66 85 14 17 44 58 66 93 21 35 53 82 69 105 93
128 296 539 340 687 7 25 24 79 38 120 27 80 66 241 93 380 24 127 26 639 3
800 -18 126 -91 404 -136 519 -12 30 35 -26 85 -101z m2508 -1005 c5 -89 4
-123 -4 -123 -7 0 -44 -15 -84 -34 -40 -19 -138 -64 -218 -100 -80 -37 -154
-71 -164 -77 -11 -6 -49 -23 -86 -38 l-66 -27 -18 100 c-14 81 -15 102 -4 112
27 25 264 184 275 184 4 0 14 7 22 15 18 15 114 71 246 141 l80 42 7 -36 c3
-21 10 -92 14 -159z m-3206 -40 c202 -62 383 -147 493 -230 31 -24 61 -42 66
-39 9 6 6 -15 -10 -69 -5 -16 -11 -43 -13 -60 -2 -16 -9 -49 -16 -73 l-13 -43
-29 35 c-39 48 -178 146 -263 186 -121 58 -292 100 -443 110 -74 4 -136 10
-138 13 -3 2 15 29 39 58 23 30 60 78 81 107 l38 53 47 -6 c25 -4 98 -22 161
-42z"/>
</g>
</svg>
