<svg id="Lager_1" data-name="Lager 1" xmlns="http://www.w3.org/2000/svg" viewBox="0 0 1770 691.17">
<defs><style>.cls-1{fill:#d21e73;}.cls-2{fill:#ffd8a3;}</style></defs><title>dd_logo</title>
<path class="cls-1" d="M1435.6,122.77q37.68,64.8,56.25,127.37c15.31-37,46-95.71,99.34-139.84C1557,108.31,1498.12,108.18,1435.6,122.77Z" transform="translate(-15 -109.34)"/>
<path class="cls-2" d="M1767.89,324.57c-25.25-90.36-73.76-160.59-144.21-208.88a266.8,266.8,0,0,0-51.11,46.7c17.76,29.12,74.93,130.05,105.5,268.72,21.18-15,58-39.26,100.39-59.25A467.3,467.3,0,0,0,1767.89,324.57Z" transform="translate(-15 -109.34)"/><path class="cls-2" d="M1688.76,488.81,1785,444.55a417.53,417.53,0,0,0-3-47.85c-44.18,21.62-81.8,47.77-98.68,60.15Q1686.31,472.56,1688.76,488.81Z" transform="translate(-15 -109.34)"/><path class="cls-2" d="M1484.89,393.18c6-83.36-18.55-171.86-73.34-264.08a366.21,366.21,0,0,0-75,31C1410.24,234.09,1460.07,312.42,1484.89,393.18Z" transform="translate(-15 -109.34)"/><path class="cls-2" d="M1674.24,796.05c7.06-100.36,4.79-196.73-6.76-286.6C1647,350.23,1581.27,225,1556.69,182.64c-39,53.94-54,108.31-54.25,109.11l-.37-.1c11.1,56.46,10.12,111.27-3,164.08,7.89,53.63,5.09,108-8.43,162.19a474.19,474.19,0,0,1-25.29,74.19c1.42,12,8.57,58.87,36.79,103.94Z" transform="translate(-15 -109.34)"/><path class="cls-2" d="M1383.62,449.75a378.77,378.77,0,0,0-.25-108.71,395.65,395.65,0,0,0-50-141.38,444.68,444.68,0,0,1-7.43,67.76c-7.14,38-21.73,87-51.22,136.15C1332,416.57,1367.27,437.82,1383.62,449.75Z" transform="translate(-15 -109.34)"/><path class="cls-1" d="M1370.74,799.51c12.58-14.35,71.55-85.62,96.91-188.32a398.84,398.84,0,0,0,11.83-97.72c-33.49,77.12-88.9,135-132.73,171.88a593.38,593.38,0,0,1-93.57,64.73C1308.9,805.54,1358.28,801.62,1370.74,799.51Z" transform="translate(-15 -109.34)"/><path class="cls-2" d="M1369.81,511.43q5.72-18.61,9.59-37.33l-1.58,1.64c-.34-.32-36.92-34.4-117-50.66A382.58,382.58,0,0,1,1234,459.44C1315.36,460.5,1353.65,491.62,1369.81,511.43Z" transform="translate(-15 -109.34)"/><path class="cls-2" d="M1331.92,666.56c48.83-41.18,112.77-109.72,140.1-202.36q1.41-4.79,2.67-9.6a395.9,395.9,0,0,0-9.3-42.87c-14.94-54.26-41.86-107.59-80.35-159.33a417.05,417.05,0,0,1,21.82,83.94c9.55,63.39,3.9,127.44-16.77,190.35-18.58,56.57-49.42,112.26-92,166.29C1308.81,685.23,1320.22,676.42,1331.92,666.56Z" transform="translate(-15 -109.34)"/><path class="cls-2" d="M932.94,278.81V392.9H899.88V386q-7.54,8.46-23.06,8.46a40.41,40.41,0,0,1-20.37-5.3,38.24,38.24,0,0,1-14.76-15.3,51.3,51.3,0,0,1,0-46.05,38.37,38.37,0,0,1,14.76-15.22,40.42,40.42,0,0,1,20.37-5.3q14,0,21.37,7.23V278.81ZM895,363q3.84-4.38,3.84-12.22T895,338.63a13.4,13.4,0,0,0-19.68,0q-3.85,4.31-3.84,12.15T875.28,363A13.24,13.24,0,0,0,895,363Z" transform="translate(-15 -109.34)"/><path class="cls-2" d="M1019.81,317.18q11.68,9.92,11.69,30.52v45.2H999.21V381.83q-6,12.61-23.83,12.61-10,0-17-3.46a24.36,24.36,0,0,1-14.22-22.68q0-12.45,9.53-18.91t28.91-6.46h14q-1.69-9.84-15.84-9.84a39.71,39.71,0,0,0-11.53,1.77,32.42,32.42,0,0,0-10,4.84l-11.07-22.91a61.12,61.12,0,0,1,17.45-7A84.3,84.3,0,0,1,986,307.26Q1008.13,307.26,1019.81,317.18Zm-27.37,54.35a11.57,11.57,0,0,0,4.31-6v-5.84h-8.61q-10.61,0-10.61,7.07a6.12,6.12,0,0,0,2.23,4.84,9,9,0,0,0,6.07,1.92A11.44,11.44,0,0,0,992.44,371.53Z" transform="translate(-15 -109.34)"/><path class="cls-2" d="M1108.53,390q-7.84,4.46-21.37,4.46-17.68,0-27.22-8.53t-9.53-25.6V338.78h-11.53V313.41h11.53V289.88h34.75v23.52h17.22v25.37h-17.22V360a8.47,8.47,0,0,0,2,6,6.79,6.79,0,0,0,5.23,2.15,13.59,13.59,0,0,0,7.84-2.31Z" transform="translate(-15 -109.34)"/><path class="cls-2" d="M1188.79,317.18q11.69,9.92,11.69,30.52v45.2h-32.29V381.83q-6,12.61-23.83,12.61-10,0-17-3.46a24.37,24.37,0,0,1-14.22-22.68q0-12.45,9.53-18.91t28.91-6.46h14q-1.69-9.84-15.84-9.84a39.72,39.72,0,0,0-11.53,1.77,32.42,32.42,0,0,0-10,4.84l-11.07-22.91a61.14,61.14,0,0,1,17.45-7,84.28,84.28,0,0,1,20.37-2.54Q1177.11,307.26,1188.79,317.18Zm-27.37,54.35a11.56,11.56,0,0,0,4.3-6v-5.84h-8.61q-10.61,0-10.61,7.07a6.12,6.12,0,0,0,2.23,4.84,9,9,0,0,0,6.07,1.92A11.44,11.44,0,0,0,1161.42,371.53Z" transform="translate(-15 -109.34)"/><path class="cls-1" d="M111.71,461.86V575.95H78.66V569q-7.54,8.46-23.06,8.46a40.42,40.42,0,0,1-20.37-5.3,38.24,38.24,0,0,1-14.76-15.3,51.3,51.3,0,0,1,0-46.05,38.36,38.36,0,0,1,14.76-15.22,40.42,40.42,0,0,1,20.37-5.31q14,0,21.37,7.23V461.86ZM73.74,546q3.84-4.38,3.84-12.23t-3.84-12.14a12.6,12.6,0,0,0-9.84-4.31,12.6,12.6,0,0,0-9.84,4.31q-3.85,4.31-3.84,12.14T54.05,546a12.5,12.5,0,0,0,9.84,4.38A12.5,12.5,0,0,0,73.74,546Z" transform="translate(-15 -109.34)"/><path class="cls-1" d="M216.12,542H157.69a14.14,14.14,0,0,0,6.15,7.3,20.89,20.89,0,0,0,10.76,2.54,27.18,27.18,0,0,0,9.3-1.38,32.64,32.64,0,0,0,8.23-4.77L210.27,564q-12.3,13.53-36.75,13.53-15.22,0-26.75-5.61a42.47,42.47,0,0,1-17.84-15.61,43.49,43.49,0,0,1-.08-45,42.56,42.56,0,0,1,17.07-15.46,56.23,56.23,0,0,1,47.66-.46,40,40,0,0,1,16.76,14.92q6.23,9.84,6.23,23.52Q216.58,534.59,216.12,542Zm-54.43-25.06a13.86,13.86,0,0,0-4.61,8.3h27.06a14.14,14.14,0,0,0-4.61-8.23,13.32,13.32,0,0,0-8.92-3A13.54,13.54,0,0,0,161.68,516.91Z" transform="translate(-15 -109.34)"/><path class="cls-1" d="M363.19,499.68q9.15,9.38,9.15,28.29v48H337.59V534q0-14.45-9.38-14.45a9.7,9.7,0,0,0-7.92,3.69q-3,3.69-3,11.68v41.06H282.54V534q0-14.45-9.38-14.45a9.7,9.7,0,0,0-7.92,3.69q-3,3.69-3,11.68v41.06H227.49V491.84h33.06v7.84q9.38-9.38,23.83-9.38a35.65,35.65,0,0,1,15.22,3.15,26.67,26.67,0,0,1,11.07,9.61,34.17,34.17,0,0,1,12.3-9.46,37.61,37.61,0,0,1,15.84-3.31Q354,490.31,363.19,499.68Z" transform="translate(-15 -109.34)"/><path class="cls-1" d="M408.24,571.88a43.18,43.18,0,0,1-17.45-15.53,43.4,43.4,0,0,1,0-45.05,42.63,42.63,0,0,1,17.45-15.46,60.21,60.21,0,0,1,50.43,0A42.12,42.12,0,0,1,476,511.3a43.85,43.85,0,0,1,0,45.05,42.66,42.66,0,0,1-17.38,15.53,59.47,59.47,0,0,1-50.43,0Zm35-25.83q3.84-4.38,3.84-12.23t-3.84-12.14a13.4,13.4,0,0,0-19.68,0q-3.85,4.31-3.84,12.14T423.54,546a13.24,13.24,0,0,0,19.68,0Z" transform="translate(-15 -109.34)"/><path class="cls-1" d="M533.47,550.12l-5.54,6v19.83H493.19V461.86h34.75v54.43l24.14-24.45h41.05l-34.75,36.44,37.52,47.67h-42Z" transform="translate(-15 -109.34)"/><path class="cls-1" d="M663.09,490.31v30.75a52.82,52.82,0,0,0-7.69-.62q-17.84,0-17.84,18.14v37.36H602.82V491.84h33.06v9.07Q645.1,490.3,663.09,490.31Z" transform="translate(-15 -109.34)"/><path class="cls-1" d="M743.66,500.22q11.68,9.92,11.69,30.52v45.21H723.06V564.88q-6,12.61-23.83,12.61-10,0-17-3.46A24.36,24.36,0,0,1,668,551.35q0-12.45,9.53-18.91T706.45,526h14q-1.69-9.84-15.84-9.84a39.74,39.74,0,0,0-11.53,1.77,32.4,32.4,0,0,0-10,4.84L672,499.84a61.1,61.1,0,0,1,17.45-7,84.26,84.26,0,0,1,20.37-2.54Q732,490.31,743.66,500.22Zm-27.37,54.35a11.56,11.56,0,0,0,4.31-6v-5.84H712q-10.61,0-10.61,7.07a6.12,6.12,0,0,0,2.23,4.84,9,9,0,0,0,6.07,1.92A11.44,11.44,0,0,0,716.29,554.58Z" transform="translate(-15 -109.34)"/><path class="cls-1" d="M832.38,573q-7.84,4.46-21.37,4.46-17.68,0-27.22-8.53t-9.53-25.6V521.83H762.73V496.45h11.53V472.93H809v23.52h17.22v25.37H809V543a8.47,8.47,0,0,0,2,6,6.79,6.79,0,0,0,5.23,2.15,13.59,13.59,0,0,0,7.84-2.31Z" transform="translate(-15 -109.34)"/><path class="cls-1" d="M927.86,542H869.44a14.14,14.14,0,0,0,6.15,7.3,20.89,20.89,0,0,0,10.76,2.54,27.18,27.18,0,0,0,9.3-1.38,32.64,32.64,0,0,0,8.23-4.77L922,564q-12.3,13.53-36.75,13.53-15.22,0-26.75-5.61a42.47,42.47,0,0,1-17.84-15.61,43.49,43.49,0,0,1-.08-45,42.56,42.56,0,0,1,17.07-15.46,56.23,56.23,0,0,1,47.66-.46,40,40,0,0,1,16.76,14.92q6.23,9.84,6.23,23.52Q928.32,534.59,927.86,542Zm-54.43-25.06a13.86,13.86,0,0,0-4.61,8.3h27.06a14.14,14.14,0,0,0-4.61-8.23,13.32,13.32,0,0,0-8.92-3A13.54,13.54,0,0,0,873.43,516.91Z" transform="translate(-15 -109.34)"/><path class="cls-1" d="M999.52,490.31v30.75a52.83,52.83,0,0,0-7.69-.62q-17.84,0-17.84,18.14v37.36H939.24V491.84H972.3v9.07Q981.53,490.3,999.52,490.31Z" transform="translate(-15 -109.34)"/><path class="cls-1" d="M1092.77,499.68q9.45,9.38,9.46,28.29v48h-34.75V534q0-14.45-10.3-14.45a12,12,0,0,0-9.46,4.07q-3.61,4.08-3.61,12.84v39.52h-34.75V491.84h33.06v8.3a32.09,32.09,0,0,1,11.38-7.38,39,39,0,0,1,14-2.46Q1083.31,490.31,1092.77,499.68Z" transform="translate(-15 -109.34)"/>
<path class="cls-1" d="M1188.79,500.22q11.69,9.92,11.69,30.52v45.21h-32.29V564.88q-6,12.61-23.83,12.61-10,0-17-3.46a24.37,24.37,0,0,1-14.22-22.68q0-12.45,9.53-18.91t28.91-6.46h14q-1.69-9.84-15.84-9.84a39.75,39.75,0,0,0-11.53,1.77,32.4,32.4,0,0,0-10,4.84l-11.07-22.91a61.11,61.11,0,0,1,17.45-7,84.24,84.24,0,0,1,20.37-2.54Q1177.11,490.31,1188.79,500.22Zm-27.37,54.35a11.56,11.56,0,0,0,4.3-6v-5.84h-8.61q-10.61,0-10.61,7.07a6.12,6.12,0,0,0,2.23,4.84,9,9,0,0,0,6.07,1.92A11.45,11.45,0,0,0,1161.42,554.58Z" transform="translate(-15 -109.34)"/>
</svg>